<svg xmlns="http://www.w3.org/2000/svg" width="0" height="0" style="position:absolute" aria-hidden="true"><defs>
<symbol id="i-paw" viewBox="0 0 24 24"><ellipse cx="6" cy="10" rx="1.8" ry="2.4"/><ellipse cx="10" cy="7" rx="1.8" ry="2.4"/><ellipse cx="14" cy="7" rx="1.8" ry="2.4"/><ellipse cx="18" cy="10" rx="1.8" ry="2.4"/><path d="M12 12c-2.6 0-4.7 2-4.7 4.2 0 1.7 1.4 2.6 3 2.6 1 0 1.2-.4 1.7-.4s.7.4 1.7.4c1.6 0 3-.9 3-2.6C16.7 14 14.6 12 12 12z"/></symbol>
<symbol id="i-heart" viewBox="0 0 24 24"><path d="M12 20C7 16.5 3 13 3 8.8 3 6.1 5.1 4 7.7 4c1.7 0 3.2.9 4.3 2.3C13.1 4.9 14.6 4 16.3 4 18.9 4 21 6.1 21 8.8c0 4.2-4 7.7-9 11.2z"/></symbol>
<symbol id="i-search" viewBox="0 0 24 24"><circle cx="11" cy="11" r="7"/><line x1="16.5" y1="16.5" x2="21" y2="21"/></symbol>
<symbol id="i-arrow" viewBox="0 0 24 24"><line x1="4" y1="12" x2="19" y2="12"/><polyline points="13 6 19 12 13 18"/></symbol>
<symbol id="i-check" viewBox="0 0 24 24"><polyline points="4 12 10 18 20 6"/></symbol>
<symbol id="i-home" viewBox="0 0 24 24"><path d="M4 11l8-7 8 7"/><path d="M6 10v9h12v-9"/><rect x="10" y="14" width="4" height="5"/></symbol>
<symbol id="i-award" viewBox="0 0 24 24"><circle cx="12" cy="9" r="5"/><polyline points="9 13.2 7.8 21 12 18.8 16.2 21 15 13.2"/></symbol>
<symbol id="i-users" viewBox="0 0 24 24"><circle cx="9" cy="8" r="3"/><path d="M3 20v-1.6a6 6 0 0 1 12 0V20"/><path d="M16 5.2a3 3 0 0 1 0 5.6M21 20v-1.6a6 6 0 0 0-3.5-5.2"/></symbol>
<symbol id="i-handheart" viewBox="0 0 24 24"><path d="M12 8.4c.6-1 1.6-1.6 2.7-1.6 1.7 0 2.8 1.3 2.1 2.9-.9 2-4.8 4-4.8 4S8.1 11.7 7.2 9.7C6.5 8.1 7.6 6.8 9.3 6.8c1.1 0 2.1.6 2.7 1.6z"/><path d="M3 15l3.4 3.4H12M21 15l-3.4 3.4"/></symbol>
<symbol id="i-shield" viewBox="0 0 24 24"><path d="M12 3l7 3v6c0 4.5-3 7.5-7 9-4-1.5-7-4.5-7-9V6z"/><polyline points="9 12 11 14 15 9.5"/></symbol>
<symbol id="i-truck" viewBox="0 0 24 24"><rect x="2" y="7" width="12" height="9" rx="1"/><path d="M14 10h4l3 3v3h-7z"/><circle cx="7" cy="18" r="1.8"/><circle cx="17.5" cy="18" r="1.8"/></symbol>
<symbol id="i-medal" viewBox="0 0 24 24"><path d="M8 3l2 6M16 3l-2 6"/><circle cx="12" cy="15" r="6"/><path d="M12 12.5l1 2 2 .2-1.5 1.4.4 2-1.9-1-1.9 1 .4-2L9 14.7l2-.2z"/></symbol>
<symbol id="i-gift" viewBox="0 0 24 24"><rect x="4" y="9" width="16" height="11" rx="1"/><path d="M3 9h18M12 9v11"/><path d="M12 9C12 6 10.5 4.5 9 4.5S6.5 6 8 7.5 12 9 12 9zM12 9c0-3 1.5-4.5 3-4.5S17.5 6 16 7.5 12 9 12 9z"/></symbol>
<symbol id="i-calendar" viewBox="0 0 24 24"><rect x="4" y="5" width="16" height="16" rx="2"/><line x1="4" y1="9.5" x2="20" y2="9.5"/><line x1="9" y1="3" x2="9" y2="7"/><line x1="15" y1="3" x2="15" y2="7"/></symbol>
<symbol id="i-clock" viewBox="0 0 24 24"><circle cx="12" cy="12" r="9"/><polyline points="12 7 12 12 15.5 14"/></symbol>
<symbol id="i-pin" viewBox="0 0 24 24"><path d="M12 21s7-6 7-11a7 7 0 0 0-14 0c0 5 7 11 7 11z"/><circle cx="12" cy="10" r="2.5"/></symbol>
<symbol id="i-phone" viewBox="0 0 24 24"><path d="M6 3h3l2 5-2.4 1.5a12 12 0 0 0 5 5L15 12l5 2v3a2 2 0 0 1-2 2A16 16 0 0 1 4 5a2 2 0 0 1 2-2z"/></symbol>
<symbol id="i-mail" viewBox="0 0 24 24"><rect x="3" y="5" width="18" height="14" rx="2"/><polyline points="3.5 7 12 13 20.5 7"/></symbol>
<symbol id="i-star" viewBox="0 0 24 24"><path d="M12 3l2.5 5.5 6 .6-4.5 4 1.3 5.9L12 17.8 6.7 19l1.3-5.9-4.5-4 6-.6z"/></symbol>
<symbol id="i-facebook" viewBox="0 0 24 24"><circle cx="12" cy="12" r="9"/><path d="M14 8.3h-1.4c-.9 0-1.6.7-1.6 1.6V17.7"/><line x1="9.7" y1="12" x2="13.8" y2="12"/></symbol>
<symbol id="i-instagram" viewBox="0 0 24 24"><rect x="4" y="4" width="16" height="16" rx="4.6"/><circle cx="12" cy="12" r="3.8"/><circle cx="16.6" cy="7.4" r="1"/></symbol>
</defs></svg>
